<svg xmlns="http://www.w3.org/2000/svg" width="32" height="32" viewBox="0 0 32 32">
  <g id="Group_10" data-name="Group 10" transform="translate(5715 798)">
    <path id="twitter" d="M30.883,6.16a12.456,12.456,0,0,1-3.131.923c.5-.088,1.248-1.03,1.545-1.412a6.006,6.006,0,0,0,1.042-1.96c.027-.056.048-.126-.006-.169a.177.177,0,0,0-.167.015,15.7,15.7,0,0,1-3.721,1.47.245.245,0,0,1-.257-.07,3.057,3.057,0,0,0-.325-.344,6.555,6.555,0,0,0-1.8-1.14,6.1,6.1,0,0,0-2.764-.46,6.456,6.456,0,0,0-2.622.765,6.781,6.781,0,0,0-3.371,4.394,7.333,7.333,0,0,0-.068,2.757c.021.154.008.175-.127.154C10,10.3,5.763,8.412,2.325,4.37c-.149-.176-.231-.176-.353.013-1.5,2.328-.775,6.067,1.1,7.905.251.245.508.49.786.713A6.352,6.352,0,0,1,1.4,12.288c-.149-.1-.224-.041-.237.133a4.117,4.117,0,0,0,.041.756,6.737,6.737,0,0,0,4.04,5.394,3.729,3.729,0,0,0,.82.258,7.081,7.081,0,0,1-2.422.078c-.176-.036-.244.055-.176.23A6.86,6.86,0,0,0,8.545,23.53c.231.042.461.042.692.1-.014.021-.027.021-.041.042-.572.9-2.55,1.567-3.471,1.9a12.082,12.082,0,0,1-5.272.7c-.283-.043-.343-.04-.419,0s-.01.12.081.195c.358.245.725.462,1.1.672a17.075,17.075,0,0,0,3.524,1.449c6.333,1.805,13.465.479,18.222-4.4C26.692,20.358,28,15.077,28,9.788c0-.206.236-.32.378-.43A12.48,12.48,0,0,0,30.846,6.7.791.791,0,0,0,31,6.188V6.16C31,6.076,31.009,6.1,30.883,6.16Z" transform="translate(-5714 -797.999)" fill="#cc5268" fill-rule="evenodd"/>
    <g id="Rectangle_34" data-name="Rectangle 34" transform="translate(-5715 -798)" fill="rgba(255,255,255,0)" stroke="rgba(255,255,255,0)" stroke-width="1">
      <rect width="31" height="32" stroke="none"/>
      <rect x="0.5" y="0.5" width="30" height="31" fill="none"/>
    </g>
  </g>
</svg>
